<svg id="Group_61" data-name="Group 61" xmlns="http://www.w3.org/2000/svg" width="113" height="95" viewBox="0 0 113 95">
  <g id="Group_21" data-name="Group 21" transform="translate(55.961 0.024)">
    <path id="Path_1" data-name="Path 1" d="M287.239.1V.511c-5.146.991-9.06,5.557-11.838,12.659s-15.848,44.114-15.848,44.114h-.821s-16.839-40.611-18.965-45.829S235.346.511,230.2.511V.1h18.071V.511c-4.155,0-4.155,2.368-1.643,8.673,2.609,6.378,15.945,38.654,15.945,38.654,4.083-11.6,10.533-29.909,11.282-31.7C275.981,10.247,275.4.535,269.845.535V.1Z" transform="translate(-230.2 -0.1)" fill="#173a55"/>
  </g>
  <path id="Path_2" data-name="Path 2" d="M30.21,279.568v.217c-2.464,0-2.73,1.57-2.73,4.759v9.2h-.217c0-2.633-6.813-.314-9.639-.121-9.011.652-16.839-4.542-17.66-14.012-.87-9.494,5.895-16.138,14.882-16.96,2.9-.266,7.03.652,9.06,1.135,2.005.483,2.827.338,2.827-2.392h.217v10.92h-.217c0-2.827-2.633-6.45-5.242-7.972a12.255,12.255,0,0,0-6.644-1.474c-6.571.6-11.306,7.9-10.557,16.356C5.061,287.637,11,294.015,17.6,293.411a15.1,15.1,0,0,0,6.112-2.029v-6.813c-.048-3.213-.266-4.759-2.73-4.759v-.217H30.21Z" transform="translate(0.112 -198.749)" fill="#173a55"/>
  <path id="Path_3" data-name="Path 3" d="M145.651,310.482a17.372,17.372,0,0,0-.169,4.373c.556,6.45,4.083,10.412,8.721,10.268a10.126,10.126,0,0,0,6.813-3.044v.483a10.727,10.727,0,0,1-6.813,2.73c-6.112.387-12.055-3.165-12.587-10.316A11.032,11.032,0,0,1,152.15,303.09c5.122-.387,9.011,2.44,9.833,7.368H145.651Zm-4.035,4.494,4.083-4.687H158.31c-.338-3.551-1.739-6.934-6.161-7.03C148.816,303.235,146.472,306.23,145.7,310.289Z" transform="translate(-107.237 -230.34)" fill="#173a55"/>
  <path id="Path_4" data-name="Path 4" d="M272.124,324.495v.217h-9.011v-.217c2.464,0,2.682-1.594,2.73-4.759V309.589c0-2.947-.314-6.426-4.518-6.426-1.812,0-4.542,1.788-5.6,4.373a12.43,12.43,0,0,1,.217,2.247v9.929c0,3.165.266,4.759,2.73,4.759v.217h-9.011v-.217c2.464,0,2.682-1.594,2.73-4.759V309.564c0-2.947-.314-6.426-4.518-6.426a6.259,6.259,0,0,0-5.339,4.2c-.048.749-.048,1.594-.048,2.633v9.712c0,3.165.266,4.759,2.73,4.759v.217H236.2v-.217c2.464,0,2.682-1.594,2.73-4.759v-11.5c-.048-3.165-.266-4.735-2.73-4.735v-.217h7.03v.217c-.314.169-.556,1.16-.652,3.286a6.683,6.683,0,0,1,6.112-3.938c3.5,0,6.064,1.16,6.934,4.373a7.418,7.418,0,0,1,6.5-4.373c4.3,0,7.248,1.788,7.248,6.934v9.929C269.394,322.9,269.636,324.495,272.124,324.495Z" transform="translate(-178.871 -230.147)" fill="#173a55"/>
  <path id="Path_5" data-name="Path 5" d="M416.984,319.776c0,3.7-2.851,5.726-7.972,5.726a8.568,8.568,0,0,1-7.151-3.479c-.942-1.425-.7-3.068.387-3.5a1.61,1.61,0,0,1,2.223,1.595c-.1,1.256-1.522,2.174-.387,3.431.821.942,2.223,1.788,4.953,1.788,2.827,0,4.735-1.812,4.735-3.986,0-5.242-11.451-5.46-11.451-12.925,0-3.334,2.827-5.122,7.248-5.122,3.865,0,5.46,1.812,6.281,3.044.942,1.425.7,3.044-.387,3.5a1.61,1.61,0,0,1-2.223-1.595c.1-1.256,1.353-2.126.314-3.286-.773-.821-1.594-1.474-3.986-1.474a3.886,3.886,0,0,0-4.155,3.986C405.364,312.7,416.984,313.447,416.984,319.776Z" transform="translate(-303.984 -230.526)" fill="#173a55"/>
  <g id="Group_22" data-name="Group 22" transform="translate(0.389)">
    <path id="Path_6" data-name="Path 6" d="M56.751,56.822v.411H39.913L17.686,28.942c-1.474,1.4-2.851,2.609-3.914,3.6V47.835c.072,5.967.483,8.987,5.146,8.987v.411H1.5v-.411c4.663,0,5.073-3.02,5.146-8.987V9.422C6.573,3.455,6.163.435,1.5.435V0H18.919V.411c-4.663,0-5.073,3.02-5.146,8.987V32.131c4.735-4.421,14.713-13.722,20.2-19.206C39.937,6.958,40.347.411,34.549.411V0H51.968V.411c-5.315,0-14.64,9.736-18.385,13.481-2.778,2.778-6.789,6.547-10.63,10.147.991,1.232,14.3,18.143,17.9,22.226C44.406,50.516,51.267,56.822,56.751,56.822Z" transform="translate(-1.5)" fill="#173a55"/>
  </g>
</svg>
