<svg xmlns="http://www.w3.org/2000/svg" width="28.392" height="28.392" viewBox="0 0 28.392 28.392">
  <g id="telephone-call" transform="translate(0)">
    <g id="Group_69" data-name="Group 69" transform="translate(1.569 1.45)">
      <path id="Path_147" data-name="Path 147" d="M31.463,30.1a3.961,3.961,0,0,1,.971-.711.917.917,0,0,0,.236-1.463L28.939,24.19a.922.922,0,0,0-1.119-.143,6.638,6.638,0,0,0-1.95,1.737l5.036,5.036A3.924,3.924,0,0,1,31.463,30.1Z" transform="translate(-25.87 -23.92)" fill="#bf9849"/>
      <path id="Path_148" data-name="Path 148" d="M336.274,332.324a6.838,6.838,0,0,0,1.051-1.355.922.922,0,0,0-.143-1.119l-3.731-3.731a.917.917,0,0,0-1.463.236,3.755,3.755,0,0,1-1.435,1.529l5.036,5.036A6.81,6.81,0,0,0,336.274,332.324Z" transform="translate(-312.079 -307.545)" fill="#bf9849"/>
    </g>
    <g id="Group_70" data-name="Group 70" transform="translate(0 0)">
      <path id="Path_149" data-name="Path 149" d="M9.66,70.09C6.248,66.679,5.023,62.271,6.6,59.709L1.569,54.673c-3.31,4.338-1.248,12.4,4.928,18.58s14.243,8.238,18.58,4.928l-5.036-5.036C17.478,74.727,13.071,73.5,9.66,70.09Z" transform="translate(0 -51.358)" fill="#bf9749"/>
      <path id="Path_150" data-name="Path 150" d="M255.153,12.839A12.853,12.853,0,0,0,242.314,0a.917.917,0,1,0,0,1.834,11.018,11.018,0,0,1,11.005,11.005.917.917,0,1,0,1.834,0Z" transform="translate(-226.762 0)" fill="#bf9849"/>
      <path id="Path_151" data-name="Path 151" d="M248.8,63.2a9.108,9.108,0,0,0-6.482-2.689.917.917,0,0,0,0,1.834,7.346,7.346,0,0,1,7.337,7.337.917.917,0,1,0,1.834,0A9.108,9.108,0,0,0,248.8,63.2Z" transform="translate(-226.764 -56.84)" fill="#bf9849"/>
      <path id="Path_152" data-name="Path 152" d="M242.314,121.01a.917.917,0,0,0,0,1.834,3.673,3.673,0,0,1,3.669,3.669.917.917,0,1,0,1.834,0A5.508,5.508,0,0,0,242.314,121.01Z" transform="translate(-226.762 -113.673)" fill="#bf9849"/>
    </g>
  </g>
</svg>
