<svg id="Logo" xmlns="http://www.w3.org/2000/svg" width="109" height="94" viewBox="0 0 109 94">
  <g id="Group_21" data-name="Group 21" transform="translate(52.976 0.024)">
    <path id="Path_1" data-name="Path 1" d="M286.224.1V.5c-5.054.973-8.9,5.458-11.627,12.434s-15.566,43.329-15.566,43.329h-.807S241.685,16.378,239.6,11.253,235.254.5,230.2.5V.1h17.749V.5c-4.081,0-4.081,2.325-1.614,8.519C248.9,15.287,262,46.989,262,46.989c4.01-11.39,10.346-29.377,11.082-31.133C275.167,10.066,274.6.527,269.139.527V.1Z" transform="translate(-230.2 -0.1)" fill="#2c697e"/>
  </g>
  <path id="Path_2" data-name="Path 2" d="M29.671,279.244v.213c-2.42,0-2.681,1.542-2.681,4.675v9.041h-.214c0-2.586-6.692-.308-9.468-.119C8.457,293.7.769,288.594-.038,279.292c-.854-9.326,5.79-15.851,14.617-16.658,2.847-.261,6.905.641,8.9,1.115,1.97.475,2.776.332,2.776-2.349h.214v10.725h-.214c0-2.776-2.586-6.336-5.149-7.831a12.037,12.037,0,0,0-6.525-1.447c-6.454.593-11.105,7.759-10.37,16.065.759,8.258,6.6,14.522,13.075,13.929a14.83,14.83,0,0,0,6-1.993v-6.692c-.047-3.156-.261-4.675-2.681-4.675v-.214h9.064Z" transform="translate(0.112 -199.173)" fill="#2c697e"/>
  <path id="Path_3" data-name="Path 3" d="M145.579,310.35a17.064,17.064,0,0,0-.166,4.295c.546,6.336,4.01,10.227,8.566,10.085a9.945,9.945,0,0,0,6.692-2.99v.475a10.537,10.537,0,0,1-6.692,2.681c-6,.38-11.841-3.109-12.363-10.132a10.836,10.836,0,0,1,10.346-11.675c5.031-.38,8.851,2.4,9.658,7.237H145.579Zm-3.963,4.414,4.01-4.6h12.387c-.332-3.488-1.708-6.81-6.051-6.905C148.687,303.231,146.385,306.174,145.626,310.16Z" transform="translate(-108.587 -230.944)" fill="#2c697e"/>
  <path id="Path_4" data-name="Path 4" d="M271.485,324.109v.214h-8.851v-.214c2.42,0,2.634-1.566,2.681-4.675v-9.966c0-2.895-.308-6.312-4.437-6.312-1.78,0-4.461,1.756-5.505,4.3a12.21,12.21,0,0,1,.214,2.207v9.753c0,3.108.261,4.675,2.681,4.675v.214h-8.851v-.214c2.42,0,2.634-1.566,2.681-4.675v-9.966c0-2.895-.309-6.312-4.437-6.312a6.147,6.147,0,0,0-5.244,4.129c-.047.736-.047,1.566-.047,2.586v9.539c0,3.109.261,4.675,2.681,4.675v.214H236.2v-.214c2.42,0,2.634-1.566,2.681-4.675V308.092c-.047-3.109-.261-4.651-2.681-4.651v-.213h6.905v.213c-.308.166-.546,1.139-.641,3.227a6.564,6.564,0,0,1,6-3.868c3.441,0,5.956,1.139,6.81,4.295a7.286,7.286,0,0,1,6.383-4.295c4.224,0,7.119,1.756,7.119,6.81v9.753C268.8,322.543,269.041,324.109,271.485,324.109Z" transform="translate(-181.371 -230.749)" fill="#2c697e"/>
  <path id="Path_5" data-name="Path 5" d="M416.7,319.483c0,3.631-2.8,5.624-7.831,5.624a8.416,8.416,0,0,1-7.024-3.417c-.925-1.4-.688-3.014.38-3.441a1.581,1.581,0,0,1,2.183,1.566c-.095,1.234-1.495,2.136-.38,3.37.807.925,2.183,1.756,4.864,1.756,2.776,0,4.651-1.78,4.651-3.915,0-5.149-11.248-5.363-11.248-12.7,0-3.275,2.776-5.031,7.119-5.031,3.8,0,5.363,1.78,6.169,2.99.926,1.4.688,2.99-.38,3.441a1.581,1.581,0,0,1-2.183-1.566c.095-1.234,1.329-2.088.308-3.227-.759-.807-1.566-1.447-3.915-1.447a3.817,3.817,0,0,0-4.081,3.915C405.291,312.531,416.7,313.266,416.7,319.483Z" transform="translate(-307.705 -231.131)" fill="#2c697e"/>
  <g id="Group_22" data-name="Group 22" transform="translate(0.382)">
    <path id="Path_6" data-name="Path 6" d="M55.768,55.811v.4H39.229L17.4,28.427c-1.447,1.376-2.8,2.563-3.844,3.536v15.02c.071,5.861.475,8.827,5.054,8.827v.4H1.5v-.4c4.58,0,4.983-2.966,5.054-8.827V9.254C6.483,3.393,6.08.427,1.5.427V0H18.609V.4c-4.58,0-4.983,2.966-5.054,8.827V31.56C18.205,27.217,28.005,18.082,33.392,12.7,39.253,6.834,39.656.4,33.961.4V0H51.07V.4C45.85.4,36.69,9.966,33.012,13.644c-2.729,2.729-6.668,6.431-10.441,9.966.973,1.21,14.048,17.821,17.583,21.831C43.643,49.617,50.382,55.811,55.768,55.811Z" transform="translate(-1.5)" fill="#2c697e"/>
  </g>
</svg>
