<svg data-name="Group 61" xmlns="http://www.w3.org/2000/svg" width="113" height="95"><g data-name="Group 21"><path data-name="Path 1" d="M113 .024v.411c-5.146.991-9.06 5.557-11.838 12.659S85.314 57.208 85.314 57.208h-.821S67.654 16.597 65.528 11.379 61.107.435 55.961.435V.024h18.071v.411c-4.155 0-4.155 2.368-1.643 8.673 2.609 6.378 15.945 38.654 15.945 38.654 4.083-11.6 10.533-29.909 11.282-31.7 2.126-5.891 1.545-15.603-4.01-15.603V.024z" fill="#173a55"/></g><path data-name="Path 2" d="M30.322 80.819v.217c-2.464 0-2.73 1.57-2.73 4.759v9.2h-.217c0-2.633-6.813-.314-9.639-.121C8.725 95.526.897 90.332.076 80.862c-.87-9.494 5.895-16.138 14.882-16.96 2.9-.266 7.03.652 9.06 1.135 2.005.483 2.827.338 2.827-2.392h.217v10.92h-.217c0-2.827-2.633-6.45-5.242-7.972a12.255 12.255 0 00-6.644-1.474c-6.571.6-11.306 7.9-10.557 16.356.771 8.413 6.71 14.791 13.31 14.187a15.1 15.1 0 006.112-2.029V85.82c-.048-3.213-.266-4.759-2.73-4.759v-.217h9.228z" fill="#173a55"/><path data-name="Path 3" d="M38.414 80.142a17.372 17.372 0 00-.169 4.373c.556 6.45 4.083 10.412 8.721 10.268a10.126 10.126 0 006.813-3.044v.483a10.727 10.727 0 01-6.813 2.73c-6.112.387-12.055-3.165-12.587-10.316A11.032 11.032 0 0144.913 72.75c5.122-.387 9.011 2.44 9.833 7.368H38.414zm-4.035 4.494l4.083-4.687h12.611c-.338-3.551-1.739-6.934-6.161-7.03-3.333-.024-5.677 2.971-6.449 7.03z" fill="#173a55"/><path data-name="Path 4" d="M93.253 94.348v.217h-9.011v-.217c2.464 0 2.682-1.594 2.73-4.759V79.442c0-2.947-.314-6.426-4.518-6.426-1.812 0-4.542 1.788-5.6 4.373a12.43 12.43 0 01.217 2.247v9.929c0 3.165.266 4.759 2.73 4.759v.217H70.79v-.217c2.464 0 2.682-1.594 2.73-4.759V79.417c0-2.947-.314-6.426-4.518-6.426a6.259 6.259 0 00-5.339 4.2c-.048.749-.048 1.594-.048 2.633v9.712c0 3.165.266 4.759 2.73 4.759v.217h-9.016v-.217c2.464 0 2.682-1.594 2.73-4.759v-11.5c-.048-3.165-.266-4.735-2.73-4.735v-.217h7.03v.217c-.314.169-.556 1.16-.652 3.286a6.683 6.683 0 016.112-3.938c3.5 0 6.064 1.16 6.934 4.373a7.418 7.418 0 016.5-4.373c4.3 0 7.248 1.788 7.248 6.934v9.929c.022 3.241.264 4.836 2.752 4.836z" fill="#173a55"/><path data-name="Path 5" d="M113 89.25c0 3.7-2.851 5.726-7.972 5.726a8.568 8.568 0 01-7.151-3.479c-.942-1.425-.7-3.068.387-3.5a1.61 1.61 0 012.223 1.595c-.1 1.256-1.522 2.174-.387 3.431.821.942 2.223 1.788 4.953 1.788 2.827 0 4.735-1.812 4.735-3.986 0-5.242-11.451-5.46-11.451-12.925 0-3.334 2.827-5.122 7.248-5.122 3.865 0 5.46 1.812 6.281 3.044.942 1.425.7 3.044-.387 3.5a1.61 1.61 0 01-2.223-1.595c.1-1.256 1.353-2.126.314-3.286-.773-.821-1.594-1.474-3.986-1.474a3.886 3.886 0 00-4.155 3.986C101.38 82.174 113 82.921 113 89.25z" fill="#173a55"/><g data-name="Group 22"><path data-name="Path 6" d="M55.64 56.822v.411H38.802L16.575 28.942c-1.474 1.4-2.851 2.609-3.914 3.6v15.293c.072 5.967.483 8.987 5.146 8.987v.411H.389v-.411c4.663 0 5.073-3.02 5.146-8.987V9.422C5.462 3.455 5.052.435.389.435V0h17.419v.411c-4.663 0-5.073 3.02-5.146 8.987v22.733c4.735-4.421 14.713-13.722 20.2-19.206C38.826 6.958 39.236.411 33.438.411V0h17.419v.411c-5.315 0-14.64 9.736-18.385 13.481-2.778 2.778-6.789 6.547-10.63 10.147.991 1.232 14.3 18.143 17.9 22.226 3.553 4.251 10.414 10.557 15.898 10.557z" fill="#173a55"/></g></svg>