<svg xmlns="http://www.w3.org/2000/svg" width="109" height="94"><g data-name="Group 21"><path data-name="Path 1" d="M109 .024v.4c-5.054.973-8.9 5.458-11.627 12.434S81.807 56.187 81.807 56.187H81s-16.539-39.885-18.624-45.01S58.03.424 52.976.424v-.4h17.749v.4c-4.081 0-4.081 2.325-1.614 8.519 2.565 6.268 15.665 37.97 15.665 37.97 4.01-11.39 10.346-29.377 11.082-31.133C97.943 9.99 97.376.451 91.915.451V.024z" fill="#2c697e"/></g><path data-name="Path 2" d="M29.783 80.071v.213c-2.42 0-2.681 1.542-2.681 4.675V94h-.214c0-2.586-6.692-.308-9.468-.119C8.569 94.527.881 89.421.074 80.119c-.854-9.326 5.79-15.851 14.617-16.658 2.847-.261 6.905.641 8.9 1.115 1.97.475 2.776.332 2.776-2.349h.214v10.725h-.214c0-2.776-2.586-6.336-5.149-7.831a12.037 12.037 0 00-6.525-1.447c-6.454.593-11.105 7.759-10.37 16.065.759 8.258 6.6 14.522 13.075 13.929a14.83 14.83 0 006-1.993v-6.692c-.047-3.156-.261-4.675-2.681-4.675v-.214h9.064z" fill="#2c697e"/><path data-name="Path 3" d="M36.992 79.406a17.064 17.064 0 00-.166 4.295c.546 6.336 4.01 10.227 8.566 10.085a9.945 9.945 0 006.692-2.99v.475a10.537 10.537 0 01-6.692 2.681c-6 .38-11.841-3.109-12.363-10.132a10.836 10.836 0 0110.346-11.675c5.031-.38 8.851 2.4 9.658 7.237H36.992zm-3.963 4.414l4.01-4.6h12.387c-.332-3.488-1.708-6.81-6.051-6.905-3.275-.028-5.577 2.915-6.336 6.901z" fill="#2c697e"/><path data-name="Path 4" d="M90.114 93.36v.214h-8.851v-.214c2.42 0 2.634-1.566 2.681-4.675v-9.966c0-2.895-.308-6.312-4.437-6.312-1.78 0-4.461 1.756-5.505 4.3a12.21 12.21 0 01.214 2.207v9.753c0 3.108.261 4.675 2.681 4.675v.214h-8.851v-.214c2.42 0 2.634-1.566 2.681-4.675v-9.966c0-2.895-.309-6.312-4.437-6.312a6.147 6.147 0 00-5.244 4.129c-.047.736-.047 1.566-.047 2.586v9.539c0 3.109.261 4.675 2.681 4.675v.214h-8.851v-.214c2.42 0 2.634-1.566 2.681-4.675v-11.3c-.047-3.109-.261-4.651-2.681-4.651v-.213h6.905v.213c-.308.166-.546 1.139-.641 3.227a6.564 6.564 0 016-3.868c3.441 0 5.956 1.139 6.81 4.295a7.286 7.286 0 016.383-4.295c4.224 0 7.119 1.756 7.119 6.81v9.753c.024 3.18.265 4.746 2.709 4.746z" fill="#2c697e"/><path data-name="Path 5" d="M108.995 88.352c0 3.631-2.8 5.624-7.831 5.624a8.416 8.416 0 01-7.024-3.417c-.925-1.4-.688-3.014.38-3.441a1.581 1.581 0 012.183 1.566c-.095 1.234-1.495 2.136-.38 3.37.807.925 2.183 1.756 4.864 1.756 2.776 0 4.651-1.78 4.651-3.915 0-5.149-11.248-5.363-11.248-12.7 0-3.275 2.776-5.031 7.119-5.031 3.8 0 5.363 1.78 6.169 2.99.926 1.4.688 2.99-.38 3.441a1.581 1.581 0 01-2.183-1.566c.095-1.234 1.329-2.088.308-3.227-.759-.807-1.566-1.447-3.915-1.447a3.817 3.817 0 00-4.081 3.915c-.041 5.13 11.368 5.865 11.368 12.082z" fill="#2c697e"/><g data-name="Group 22"><path data-name="Path 6" d="M54.65 55.811v.4H38.111L16.282 28.427c-1.447 1.376-2.8 2.563-3.844 3.536v15.02c.071 5.861.475 8.827 5.054 8.827v.4H.382v-.4c4.58 0 4.983-2.966 5.054-8.827V9.254C5.365 3.393 4.962.427.382.427V0h17.109v.4c-4.58 0-4.983 2.966-5.054 8.827V31.56c4.65-4.343 14.45-13.478 19.837-18.86C38.135 6.834 38.538.4 32.843.4V0h17.109v.4c-5.22 0-14.38 9.566-18.058 13.244-2.729 2.729-6.668 6.431-10.441 9.966.973 1.21 14.048 17.821 17.583 21.831 3.489 4.176 10.228 10.37 15.614 10.37z" fill="#2c697e"/></g></svg>