<svg data-name="Group 28" xmlns="http://www.w3.org/2000/svg" width="190.053" height="52.429"><g data-name="Group 24"><path data-name="Path 7" d="M100.794.029v.384c-4.633.886-8.136 5.078-10.655 11.6S75.893 52.429 75.893 52.429h-.695s-15.115-37.2-17.025-41.979S54.206.413 49.573.413V.029h16.215v.384c-3.735 0-3.735 2.185-1.477 7.941 2.345 5.845 14.3 35.4 14.3 35.4 3.677-10.628 9.468-27.4 10.134-29.049 1.911-5.4 1.39-14.288-3.59-14.288V.029z" fill="#2c697e"/></g><path data-name="Path 8" d="M116.181 39.688v.2c-2.229 0-2.461 1.39-2.461 4.285v8.252h-.2c0-2.374-6.109-.261-8.658-.116-8.107.579-15.114-4.083-15.867-12.6-.782-8.542 5.3-14.506 13.377-15.23a29.608 29.608 0 018.136 1.013c1.8.434 2.519.318 2.519-2.143h.2v9.816h-.2c0-2.519-2.374-5.82-4.72-7.181a11.158 11.158 0 00-5.965-1.332c-5.936.55-10.163 7.094-9.5 14.68.695 7.557 6.051 13.29 11.958 12.74a13.56 13.56 0 005.5-1.824v-6.101c-.029-2.9-.232-4.285-2.461-4.285v-.2h8.339z" fill="#2c697e"/><path data-name="Path 9" d="M123.298 39.052a16.043 16.043 0 00-.145 3.938c.492 5.82 3.648 9.352 7.818 9.236a9.036 9.036 0 006.109-2.722v.434a9.64 9.64 0 01-6.109 2.461c-5.5.347-10.829-2.838-11.292-9.265a9.921 9.921 0 019.468-10.684c4.6-.347 8.107 2.172 8.831 6.631h-14.68zm-3.648 4.054l3.677-4.2h11.35c-.319-3.185-1.564-6.225-5.53-6.312-3.011-.057-5.125 2.634-5.82 6.313z" fill="#2c697e"/><path data-name="Path 10" d="M172.362 51.82v.2h-8.107v-.2c2.23 0 2.4-1.448 2.461-4.285v-9.121c0-2.664-.261-5.762-4.054-5.762-1.65 0-4.083 1.592-5.038 3.938a10.417 10.417 0 01.2 2.027v8.918c0 2.838.232 4.285 2.461 4.285v.2h-8.107v-.2c2.23 0 2.4-1.448 2.461-4.285v-9.121c0-2.664-.261-5.762-4.054-5.762a5.617 5.617 0 00-4.806 3.793c-.029.666-.029 1.448-.029 2.374v8.715c0 2.838.232 4.285 2.461 4.285v.2h-8.104v-.2c2.23 0 2.4-1.448 2.461-4.285V37.198c-.029-2.838-.232-4.256-2.461-4.256v-.2h6.312v.2c-.261.145-.492 1.042-.579 2.953a6 6 0 015.5-3.532c3.156 0 5.443 1.042 6.225 3.938a6.685 6.685 0 015.849-3.938c3.851 0 6.515 1.592 6.515 6.225v8.918c.001 2.896.233 4.314 2.433 4.314z" fill="#2c697e"/><path data-name="Path 11" d="M190.054 47.246c0 3.3-2.577 5.154-7.181 5.154a7.733 7.733 0 01-6.428-3.127c-.869-1.274-.637-2.78.348-3.156a1.45 1.45 0 012 1.448c-.087 1.129-1.361 1.94-.347 3.069.753.869 2 1.592 4.43 1.592 2.519 0 4.256-1.65 4.256-3.59 0-4.72-10.279-4.922-10.279-11.611 0-3.011 2.519-4.6 6.515-4.6 3.475 0 4.922 1.65 5.646 2.722.869 1.274.637 2.722-.347 3.156a1.45 1.45 0 01-2-1.448c.087-1.129 1.216-1.911.261-2.953-.695-.753-1.448-1.332-3.59-1.332a3.487 3.487 0 00-3.735 3.59c-.002 4.716 10.451 5.382 10.451 11.086z" fill="#2c697e"/><g data-name="Group 25"><path data-name="Path 12" d="M49.657 52.045v.384H34.514l-19.979-25.92C13.2 27.779 11.958 28.9 11 29.816v13.993c.087 5.461.434 8.236 4.633 8.236v.384H0v-.384c4.2 0 4.546-2.775 4.633-8.236V8.62C4.546 3.159 4.2.384 0 .384V0h15.635v.384C11.437.384 11.09 3.159 11 8.62v20.812c4.285-4.044 13.232-12.576 18.154-17.594C34.514 6.376 34.89.384 29.678.384V0h15.636v.384c-4.778 0-13.146 8.916-16.533 12.369-2.49 2.539-6.109 5.993-9.555 9.3.869 1.122 12.856 16.62 16.1 20.369 3.241 3.866 9.409 9.623 14.331 9.623z" fill="#2c697e"/></g></svg>