<svg xmlns="http://www.w3.org/2000/svg" width="29" height="29"><g data-name="Group 244" transform="rotate(180 400.065 853.065)"><circle data-name="Ellipse 13" cx="14.5" cy="14.5" r="14.5" transform="translate(771.13 1677.13)" fill="#bf9649"/><g data-name="Group 242"><path data-name="Path 1148" d="M792.908 1691.174l-5.485-5.484a.834.834 0 00-1.176 0l-.5.5a.825.825 0 00-.243.588.841.841 0 00.243.595l3.2 3.207h-10.163a.811.811 0 00-.821.814v.707a.842.842 0 00.821.853h10.2l-3.234 3.223a.823.823 0 000 1.167l.5.5a.834.834 0 001.176 0l5.485-5.485a.838.838 0 000-1.18z" fill="#fff"/></g></g></svg>